<?xml version="1.0" encoding="utf-8"?>
<!-- Generator: Adobe Illustrator 23.1.1, SVG Export Plug-In . SVG Version: 6.00 Build 0)  -->
<svg version="1.1" id="Layer_1" xmlns="http://www.w3.org/2000/svg" xmlns:xlink="http://www.w3.org/1999/xlink" x="0px" y="0px"
	 viewBox="0 175 1400 300" style="enable-background:new 0 0 1400 700;" xml:space="preserve">
<style type="text/css">
	.st0{fill:#0EAFA7;}
</style>
<g>
	<g>
		<path class="st0" d="M2.7,385.23c23.6,0.54,46.84-3.52,70-7.58c24.16-4.23,48.11-7.12,72.66-7.38
			c23.88-0.24,47.74,0.91,71.62,0.93c24.08,0.02,48.17,0.19,72.21,1.38c27.79,1.38,55.51,4.17,82.81,9.61
			c2.55,0.5,4.12-1.86,3.15-4.1c-7.28-17.1-12.48-36.34-23.71-51.43c-13.89-18.66-40.7-6.67-59.42-5.36
			c-40.79,2.81-80.85-53.46-50.38-87.41c12.63-14.06,33.21-21.9,50.83-27.32c19.93-6.13,41.22-9.46,62.06-7.28
			c19.32,2.01,38.69,9.82,50.1,26.23c8.38,12.05,9.93,26.5,5.12,40.29c-4.06,11.68-12.33,21.44-21.33,29.67
			c-5.55,5.08-10.08,10.1-12.07,17.55c-3.35,12.5-2.09,26.13-2.81,38.95c-0.84,14.58-3.28,29.75-11.77,42.02
			c-5.36,7.75-14.94,17.23-24.9,17.82c-5.85,0.35-9.41-3.63-11.81-8.51c-0.56,1.36-1.12,2.74-1.68,4.1
			c16.84-5.2,36.66,2.4,52.58,7.71c13.54,4.51,27.06,10.17,41.18,12.63c12.27,2.14,24.85,2.85,37.27,3.59
			c45.43,2.74,91.04,3.22,136.55,3.35c58.45,0.17,116.9-0.75,175.31-2.85c53.94-1.96,107.96-4.68,161.64-10.41
			c19.86-2.12,39.73-4.6,59.32-8.46c12.39-2.44,25.63-5.05,36.86-11.06c1.81-0.97,3.48-2.07,5.07-3.35
			c2.81-2.25-1.17-6.18-3.95-3.95c-7.52,6.03-20.26,8.74-30.02,10.97c-18.23,4.17-36.84,6.74-55.39,8.92
			c-52.02,6.13-104.45,9-156.76,11.12c-58.73,2.38-117.51,3.46-176.28,3.5c-47.18,0.04-94.41-0.39-141.52-2.76
			c-14.06-0.71-28.2-1.42-42.17-3.32c-27.19-3.69-51.87-18.29-79.18-22.02c-7.32-1.01-14.84-1.19-21.96,1.01
			c-1.81,0.56-2.48,2.46-1.68,4.1c11.59,23.47,37.61,4.36,47.22-10.6c8.16-12.68,10.73-27.9,11.64-42.69
			c0.48-7.82,0.5-15.68,0.84-23.51c0.28-6.26,0.6-13,3.18-18.81c3.52-7.9,11.92-12.93,17.49-19.3c9.22-10.54,16.13-23,17.38-37.14
			c2.1-23.79-14.62-44.11-35.5-53.31c-19.74-8.7-42.26-8.98-63.29-5.94c-21.23,3.07-42.39,9.8-61.24,20.13
			c-18.63,10.21-33.3,26.08-32.56,48.52c0.69,21.33,13.93,41.03,31.27,52.73c8.9,6,19.84,10.65,30.7,10.86
			c13.32,0.26,26.13-4.6,39.39-5.01c5.85-0.19,12.35,0.54,17.02,4.41c3.43,2.85,5.74,7.23,7.82,11.08
			c5.57,10.23,9.85,21.14,14.1,31.96c1.51,3.82,2.98,7.66,4.6,11.44c1.04-1.36,2.1-2.74,3.15-4.1
			c-47.59-9.5-96.22-10.99-144.61-11.16c-48.24-0.17-96.46-3.52-144.29,4.34c-27.18,4.47-54.2,10.32-81.88,9.67
			C-0.9,379.57-0.9,385.15,2.7,385.23L2.7,385.23z"/>
	</g>
</g>
<g>
	<g>
		<path class="st0" d="M1397.31,396.4c-24.31,0.56-48.17-3.84-72.03-7.99c-23.47-4.08-46.81-6.72-70.65-6.97
			c-24.21-0.26-48.41,0.91-72.62,0.93c-25.05,0.02-50.12,0.22-75.16,1.58c-26.97,1.47-53.87,4.32-80.35,9.61
			c1.04,1.36,2.1,2.74,3.15,4.1c3.95-9.28,7.36-18.77,11.36-28.03c3.71-8.57,7.77-20.3,15.16-26.45c9.96-8.29,26.34-3.56,37.66-1.53
			c12.2,2.18,23.43,3.09,35.24-1.4c20.1-7.64,36.73-24.81,43.04-45.45c6.35-20.79-0.34-42.04-17.64-55.23
			c-16.24-12.39-37.01-19.97-56.68-24.74c-21.29-5.18-44.22-7.25-65.73-2.22c-20.17,4.71-39.65,17.47-47.29,37.49
			c-10.15,26.6,6.52,50.74,25.14,68.17c8.18,7.66,9.65,16.82,10.13,27.75c0.67,15.38,0.2,31.01,4,46.06
			c3.11,12.31,9.2,23.62,18.77,32.04c6.85,6.03,16.89,12.44,26.41,9.16c4.97-1.71,8.25-5.89,10.51-10.45
			c0.8-1.64,0.15-3.54-1.68-4.1c-15.87-4.9-33.99,0.82-49.19,5.62c-15.29,4.84-30.43,11.55-46.25,14.47
			c-11.25,2.09-23.6,2.1-35.26,2.31c-44.8,0.76-89.68-1.4-134.39-3.82c-58.06-3.17-116.06-7.54-173.93-13.04
			c-54.15-5.16-108.31-11.12-162.01-19.78c-20.19-3.26-40.38-6.85-60.27-11.66c-12.44-3.02-25.69-6.11-37.01-12.27
			c-1.45-0.78-3.58-2.12-4.38-2.78c-2.78-2.24-6.76,1.69-3.95,3.95c8.49,6.82,20.04,10,30.32,12.95
			c17.81,5.08,36.06,8.66,54.29,11.9c51.71,9.22,103.99,15.29,156.2,20.62c58.9,6.02,117.94,10.75,177.06,14.32
			c47.81,2.89,95.76,5.33,143.68,5.31c14.32,0,28.74-0.06,43.01-1.51c26.5-2.72,50.51-16.58,76.63-21.4
			c7.88-1.45,16.2-2.2,23.99,0.2c-0.56-1.36-1.12-2.74-1.68-4.1c-2.42,4.88-5.96,8.87-11.81,8.51c-5.23-0.32-10.21-3.43-14.21-6.59
			c-9.83-7.75-16.06-18.48-19.24-30.51c-3.76-14.27-3.41-29.13-3.95-43.75c-0.35-9.54-0.89-20.02-6.84-27.94
			c-5.1-6.82-12.4-11.73-17.75-18.4c-8.96-11.18-15.03-24.81-13.49-39.39c2.37-22.41,22.82-37.77,43.16-43.23
			c19.91-5.35,41.39-3.82,61.33,0.54c18.85,4.13,37.62,10.9,53.96,21.29c18.27,11.62,27.08,31.09,20.84,52.25
			c-5.92,20.12-22.84,37.03-42.8,43.31c-11.62,3.65-22.87,1.21-34.57-0.86c-10.41-1.84-22.2-3.99-32.19,0.73
			c-7.82,3.71-12.03,11.81-15.78,19.2c-4.75,9.42-8.66,19.26-12.52,29.06c-1.4,3.54-2.74,7.12-4.25,10.64
			c-0.97,2.25,0.61,4.62,3.15,4.1c48.07-9.59,97.23-10.84,146.1-10.97c24.23-0.06,48.45-0.95,72.68-0.97
			c24.38-0.04,48.3,1.88,72.32,5.98c25.91,4.41,51.78,9.61,78.19,9.01C1400.89,401.92,1400.91,396.33,1397.31,396.4L1397.31,396.4z"
			/>
	</g>
</g>
</svg>
