<?xml version="1.0" encoding="utf-8"?>
<!-- Generator: Adobe Illustrator 23.1.1, SVG Export Plug-In . SVG Version: 6.00 Build 0)  -->
<svg version="1.1" id="Layer_1" xmlns="http://www.w3.org/2000/svg" xmlns:xlink="http://www.w3.org/1999/xlink" x="0px" y="0px"
	 viewBox="0 200 1400 300" style="enable-background:new 0 0 1400 700;" xml:space="preserve">
<style type="text/css">
	.st0{fill:#0EAFA7;}
</style>
<g>
	<g>
		<path class="st0" d="M1398.13,428.34c-92.92-0.09-185.51-8.84-278.37-10.82c-46.22-0.98-92.19,1.02-138.36,2.91
			c-46.03,1.87-92.05,3.37-138.05,5.66c-34,1.68-68.08,4.32-102.14,2.6c-33.51-1.69-68.37-7.6-97.12-25.95
			c-29.67-18.93-79.37-78.58-34.14-107.9c25.13-16.3,71.25-13.83,84.82,16.77c1.78,4.01,2.82,8.31,3.28,12.66
			c1.2-0.32,2.4-0.65,3.62-0.98c-8.92-17.83-9.11-38.62,8.53-50.94c14.85-10.38,35.42-11.89,52.45-6.67
			c20.36,6.23,33.99,22.84,35.85,44.09c2.95,33.73-11.77,65.6-37.67,86.93c-26.85,22.11-59.32,28.48-92.96,32.44
			c-40.01,4.69-80.42,5.61-120.66,4.68c-82.98-1.9-165.47-11.67-248.13-18.54c-47.6-3.94-95.06-6.32-142.85-5.22
			c-51.47,1.18-102.87,4.62-154.37,4.68c-2.5,0-2.5,3.88,0,3.88c49.66-0.06,99.23-3.26,148.86-4.55
			c46.41-1.2,92.53,0.62,138.79,4.32c88.73,7.08,177.26,18.06,266.36,19.48c42.59,0.67,85.33-0.84,127.54-6.88
			c32.37-4.63,62.77-14.38,86.87-37.52c23.41-22.5,36.16-55.24,31.64-87.73c-2.79-20.09-16.21-35.85-35.14-42.76
			c-32.1-11.71-82.99,4.15-74.37,46.16c1.16,5.64,3.34,10.99,5.9,16.12c0.83,1.65,3.81,0.94,3.62-0.98
			c-3.92-36.55-45.04-48.99-76.3-40.48c-14.83,4.03-29.06,13.25-34.88,28.03c-7.67,19.47,1.91,40.7,13.1,56.64
			c19.33,27.56,46.17,46.03,78.48,55.21c33.94,9.64,69.93,10.2,104.95,9.05c92.05-3.05,184.06-10.1,276.18-11.53
			c99.27-1.55,198.21,8.4,297.38,10.6c12.44,0.27,24.87,0.43,37.31,0.43C1400.62,432.22,1400.62,428.34,1398.13,428.34
			L1398.13,428.34z"/>
	</g>
</g>
</svg>
