<?xml version="1.0" encoding="utf-8"?>
<!-- Generator: Adobe Illustrator 23.1.1, SVG Export Plug-In . SVG Version: 6.00 Build 0)  -->
<svg version="1.1" id="Layer_1" xmlns="http://www.w3.org/2000/svg" xmlns:xlink="http://www.w3.org/1999/xlink" x="0px" y="0px"
	 viewBox="0 0 1400 700" style="enable-background:new 0 0 1400 700;" xml:space="preserve">
<style type="text/css">
	.st0{fill:#F9D835;}
</style>
<g>
	<g>
		<path class="st0" d="M1.88,464.21c35.53,2.29,71.41,6.76,106.93,2.15c15.97-2.08,31.82-6.08,46.18-13.54
			c15.14-7.86,28.33-19.88,39.43-32.7c44.49-51.34,47.58-122.73,60.8-186.24c6.19-29.75,16.85-59.15,43.21-76.73
			c16.46-10.96,36.49-16.82,55.3-22.39c20.7-6.14,41.86-10.81,63.27-13.68c38.5-5.16,81.13-6.14,118.19,7.16
			c28.44,10.21,51.17,30.67,63.57,58.31c7.08,15.79,11.34,33.4,12.36,50.65c1.34,22.6-3.36,44.9-4.56,67.38
			c-0.87,16.28,3.08,29.23,12.06,42.7c8.11,12.13,18.85,26.93,15.82,42.46c-2.17,11.09-13.19,15.95-20.75,22.97
			c-7.58,7.05-12.71,18.76-8.8,29.04c1.65,4.34,5.06,6.66,8.64,9.28c6.34,4.64,8.08,11.34,0.76,16.26
			c-6.15,4.14-18.32,7.37-13.68,17.4c1.75,3.78,5.52,5.07,8.93,6.92c5.15,2.79,2.4,7.07-0.98,10.39
			c-7.9,7.74-18.05,13.82-27.2,19.94c-9.59,6.4-19.32,12.97-29.57,18.27c-13.83,7.14-32.27,7.29-47.45,6.68
			c-19.04-0.76-39.63-4.12-56.46-13.55c-11.36-6.36-19.7-16.74-31.79-21.98c-37.47-16.21-79.91-3.62-118.8-2.6
			c-15.41,0.4-29.24-2.29-42.55-10.37c-12.73-7.74-23.4-18.66-32.37-30.47c-18.27-24.05-31.07-52.75-38.5-81.94
			c-2.72-10.65-5.11-21.47-3.96-32.5c1.23-11.67,4.42-23.66,9.68-34.18c4.19-8.38,11.89-19.99,22.92-16.69
			c14.71,4.41,20.83,21.29,12.98,34.04c-7.3,11.87-23.34,20.21-36.6,13.21c0.3,0.72,0.59,1.46,0.89,2.18
			c6.45-18.64,27.98-22.96,45.37-24.34c22.44-1.78,45.06,0.39,67.49,1.36c17.42,0.75,38.57,2.77,54.96-4.64
			c12.58-5.7,22.94-19.56,31.26-30.03c10.36-13.01,22.28-28.69,25.19-45.51c2.11-12.18-5.6-21.51-18.44-20.32
			c-11.4,1.05-18.06,12.49-21.99,21.98c-6.71,16.24-9.13,34.29-10.45,51.69c-1.62,21.38-1.19,43.12,1.95,64.35
			c1.78,12.06,4.02,30.63,14.45,38.85c0.84,0.66,1.9,0.79,2.74,0c34-31.8,47.09-78.21,65.23-119.59
			c8.61-19.64,18.6-39.42,33.82-54.83c16.48-16.69,38.14-25.42,61.41-26.97c17.13-1.15,32.98,1.94,49.67,5.29
			c17.96,3.59,35.27,0.81,52.74-4.02c21.16-5.86,41.33-11.96,63.44-13.28c21.47-1.28,43.01,0.32,64.32,3.04
			c23,2.92,45.79,7.15,68.73,10.5c6.06,0.89,11.93,1.8,17.88,3.18c15.8,3.67,31.51,7.72,47.29,11.43
			c43.14,10.12,87.59,20.19,132.07,21.18c20.82,0.47,67.99-1.97,59.42-34.89c-4-15.33-20.29-25.24-33.41-31.9
			c-20.49-10.39-42.98-16.92-65.3-22.03c-22.33-5.11-45.11-8.77-67.97-10.38c-15.92-1.12-32.52-2.02-47.44,4.55
			c-47.71,21-47.67,87-58.58,130.04c-3.06,12.08-6.9,24.14-14.22,34.36c-9.52,13.29-22.56,23.63-31.88,37.11
			c-7.11,10.27-12.23,24.02-9.17,36.64c2.4,9.89,10.68,15.41,19.9,18.31c11.55,3.63,23.89,4.16,35.76,6.27
			c-0.48-0.62-0.94-1.24-1.42-1.87c1.29,13.25-6.49,18.18-17.48,22.57c-6.35,2.53-13.5,5.57-14.44,13.23
			c-0.52,4.15,0.61,9.58,3.41,12.75c3.35,3.79,8.53,3.76,13.06,4.98c7.74,2.08,10.42,12.95,3.1,17.53
			c-3.62,2.26-8.44,1.97-11.95,4.42c-6.24,4.37-4.65,16.96-2.11,22.99c3.53,8.33,11.04,14.16,18.85,18.27
			c20.7,10.89,46.13,13.77,69.19,13.9c62.15,0.35,117.19-37.93,151.86-87.33c9.98-14.21,18.51-29.43,25.66-45.25
			c5.9-13.05,12.63-27.1,15.4-41.19c2.43-12.33-1.58-24.9-15.76-26.75c-12.77-1.67-25.86,8.55-31.3,19.48
			c-9.3,18.66,6.32,35.66,19.12,47.62c17.57,16.41,40.25,31.39,50.22,54.12c2.53,5.78,3.81,11.89,3.81,18.2
			c0.97-0.56,1.94-1.11,2.92-1.68c-7.89-5.73,0.4-22.75,3.13-29.12c6.99-16.37,16.04-31.86,24.72-47.37
			c9.18-16.42,18.57-32.83,26.22-50.02c4.99-11.22,11.26-24.94,9.37-37.58c-0.65-4.34-2.53-8.27-6.1-10.95
			c-3.05-2.29-10.72-5.44-14.44-3.65c-3.26,1.56-5.97,9.44-7.29,12.63c-1.93,4.67-3.19,9.55-3.68,14.58
			c-0.94,9.71,1.19,19.37,5.18,28.2c9.36,20.71,27.59,36.78,45.9,49.53c18.22,12.68,38.54,23.36,59.78,29.99
			c13.74,4.29,28.3,5.79,42.5,7.98c10.5,1.62,21.11,3.37,31.75,3.59c8.17,0.17,16.26-0.94,24.36-2.02
			c16.15-2.13,32.31-3.94,48.53-5.38c2.47-0.22,2.5-4.1,0-3.88c-21.98,1.94-43.97,6.12-66,7.28c-20.88,1.11-42.29-4.03-62.76-7.37
			c-19.77-3.22-38.3-11.16-55.75-20.83c-20.69-11.47-41.02-25.96-55.41-45.01c-12.89-17.07-19.3-38.44-9.32-58.54
			c0.75-1.51,2.51-6.18,3.99-6.93c0.94-0.48,3.06,0.1,4.21,0.35c2.33,0.5,4.67,1.33,6.53,2.87c3.58,2.95,4.47,7.6,4.41,12.01
			c-0.21,13.61-7.18,27.45-12.97,39.41c-7.99,16.51-17.17,32.41-26.09,48.43c-8.66,15.55-17.83,31.27-23.94,48.06
			c-2.9,7.95-7.24,20.94,1.22,27.09c1.23,0.89,2.92-0.31,2.92-1.68c0-21.54-14.86-38.44-29.75-52.35
			c-14.61-13.65-35.4-26.58-43.89-45.35c-4.54-10.03-1.94-20.1,5.49-28.04c5.66-6.05,14.7-11.61,23.34-9.59
			c10.34,2.42,12.92,11.44,11.27,20.78c-2.37,13.45-8.86,26.89-14.36,39.3c-6.5,14.66-14.18,28.82-23.1,42.15
			c-32.44,48.55-85.16,88.51-145.47,90.28c-22.12,0.65-45.7-1.72-66.4-9.97c-8.79-3.5-18.15-8.6-23.12-16.99
			c-2.37-3.99-3.39-8.56-3.06-13.19c0.43-6.24,2.06-8.02,7.76-9.71c9.23-2.74,15.59-9.92,11.33-20.13
			c-4.78-11.48-23.45-3.58-22.74-19.44c0.43-9.28,13.08-10.99,19.73-14.3c9.36-4.68,13.32-12.54,12.3-22.94
			c-0.08-0.79-0.54-1.72-1.42-1.87c-11.86-2.11-24.22-2.62-35.76-6.27c-13.95-4.4-19.76-14.7-17.13-29.21
			c5.37-29.59,37.64-44.93,48.73-72.05c9.1-22.26,11.8-46.75,16.76-70.13c4.93-23.27,11.34-49.01,28.96-66.18
			c13.85-13.5,30.72-16.81,49.22-16.46c21.13,0.4,42.26,3.28,63,7.19c23.18,4.37,46.35,10.19,68.24,19.06
			c15.4,6.23,34.97,14.92,43.3,30.33c6.21,11.49,1.8,23.57-9.61,29.23c-14.2,7.05-32.09,6.74-47.53,6.17
			c-43.16-1.59-86.08-11.22-127.98-21.07c-15.37-3.61-30.67-7.54-46.04-11.13c-4.4-1.03-8.78-1.94-13.25-2.57
			c-21.33-2.99-42.52-6.85-63.84-9.89c-39.61-5.64-79.93-8.18-118.88,2.73c-19.21,5.39-38.88,12.89-59.15,11.86
			c-16.28-0.84-31.74-6.68-48.13-7.3c-22.16-0.84-44.76,3.1-63.58,15.35c-16.51,10.74-28.65,26.67-38.11,43.73
			c-21.29,38.35-31.31,82.2-55.87,118.88c-6.04,9.01-12.95,17.35-20.88,24.77c0.92,0,1.82,0,2.74,0
			c-8.66-6.81-10.82-21.77-12.61-31.83c-3.13-17.71-3.9-35.9-3.43-53.86c0.48-17.73,2.17-35.7,6.84-52.85
			c2.87-10.56,7.64-26.36,19.03-30.82c4.93-1.93,12.23-1.07,15.9,2.99c4.23,4.67,2.47,12.08,0.74,17.4
			c-5.46,16.79-17.35,32.08-28.75,45.25c-8.73,10.07-18.04,21.14-31.48,24.32c-18.13,4.28-37.83,2.39-56.23,1.45
			c-22.37-1.15-45.25-3.12-67.51,0.32c-16.38,2.53-32.98,9.19-38.81,26.01c-0.27,0.78,0.17,1.81,0.89,2.18
			c21.18,11.17,53.25-12.31,45.19-36.34c-3.12-9.28-13.7-19.08-24.01-18.73c-9.43,0.32-16.11,8.78-20.34,16.32
			c-11.36,20.25-14.16,43.35-9.24,65.73c6.65,30.27,19.38,60.18,37.39,85.45c16.03,22.5,38.62,43.7,67.29,46.74
			c20.89,2.21,42.51-2.08,63.29-3.98c21.9-1.99,45.87-2.39,66.63,5.91c13.73,5.49,23.04,17.69,36.24,24.19
			c16.82,8.3,36.38,11.53,54.99,12.28c15.29,0.62,33.9,0.27,47.99-6.5c10.61-5.09,20.56-12.05,30.32-18.55
			c6.87-4.58,47.86-27.5,28.42-37.66c-5.4-2.82-11.25-7.69-3.72-12.49c4.49-2.86,9.99-4.5,13.45-8.77c2.95-3.65,3.18-8.55,1.03-12.7
			c-2.3-4.45-6.9-6.12-10.36-9.41c-5.99-5.73-4.43-16.07-0.57-22.64c3.04-5.16,7.94-8.75,12.61-12.32
			c8.57-6.55,15.39-13.65,15.18-25.15c-0.27-15.5-9.49-28.21-17.63-40.6c-4.55-6.92-8.46-14.21-9.99-22.43
			c-2.08-11.13-0.37-22.96,0.8-34.11c2.4-22.79,5.04-45.12,0.89-67.88c-2.84-15.59-7.8-30.94-15.62-44.77
			c-14.76-26.09-39.26-43.96-67.76-52.56c-39.63-11.96-83.99-9.9-124.36-3.3c-22.55,3.68-44.79,9.28-66.47,16.5
			c-17.26,5.74-34.67,11.86-49,23.41c-24.31,19.63-33.42,49.83-39.17,79.33c-6.98,35.76-11.57,72.14-21.72,107.22
			c-10.59,36.63-29.27,69.26-59.3,93.33c-31.37,25.13-73.89,26.89-112.34,25.28c-18.42-0.78-36.77-2.51-55.17-3.7
			C-0.61,460.17-0.6,464.05,1.88,464.21L1.88,464.21z"/>
	</g>
</g>
</svg>
