<svg xmlns="http://www.w3.org/2000/svg" viewBox="0 0 1357.06 357.96"><defs><style>.cls-1{fill:#f9d835;}</style></defs><title>landing_img</title><g id="Layer_1" data-name="Layer 1"><path class="cls-1" d="M1224.9,452.89c-9.69.51-19.37-.91-29-1.26-9.35-.34-19.42,0-27.8,4.64a27.63,27.63,0,0,0-10,9.46c-2.84,4.51-4.23,9.75-6.09,14.7-1.27,3.37-2.79,6.71-5.77,8.9-3.43,2.53-7.6,3.27-11.46,4.87-4.33,1.79-8.54,3.85-13,5.28-2.42.78-9,3.1-10-.7l-.69,1.69c3.82-2,7.91.34,11.72,1.22,3.32.77,7.47.68,10.08-1.85,4.75-4.61-2.4-11.55-5-15.21-4.84-6.68-3.29-15.14-1.59-22.65,1.85-8.19,4.25-16.27,2.86-24.73-1.64-10-7.28-19.08-7.07-29.41.11-5.39,1.47-10.64,2.67-15.87a81,81,0,0,0,1.87-15c.19-4.93.08-10,1-14.85.71-3.84,1.72-7.62,2.24-11.5.45-3.33.77-7.33-1-10.38-1.27-2.21-3.65-3.45-6-4.31-6.65-2.49-13.9-2.15-20.76-3.66-11.3-2.49-22-7.05-33.75-7.41a1.52,1.52,0,0,0-1.06,2.56c7.27,8.53,11.69,19.06,15.93,29.31,4.31,10.41,9.17,20.59,11.76,31.61,2.83,12,2.77,24.42,3.85,36.66.27,3,.43,6.11.89,9.13.28,1.88,1,4.72-.85,5.81a21.21,21.21,0,0,1-4.9,1.56c-1.53.41-3.07.77-4.6,1.21A105.39,105.39,0,0,1,1072,446.5a42.91,42.91,0,0,1-17.65-1.82c-11.1-3.39-22.15-7.14-33.73-8.52a51.36,51.36,0,0,0-16.64.53c-5.54,1.18-10.06,4-15.09,6.39A43.22,43.22,0,0,1,974.73,447a49,49,0,0,1-7.75.42,49.86,49.86,0,0,1-7-1.13c-4.23-.86-9.09-2.11-13.37-.86-3.43,1-5.64,4-7.21,7a97.64,97.64,0,0,0-4.53,11.59,44,44,0,0,1-4.1,8.07,106.85,106.85,0,0,0-5.45,9.75c-1.43,3-3.06,6.37-3,9.74,0,6.15,8.08,6.7,12.62,6.94,6.94.37,13.88-.31,20.79-.86,3.78-.3,7.57-.22,11.36-.26,6.65-.08,13.3-.25,19.94-.42,23.42-.58,46.78-.34,70.15,1.16,7.86.51,16.58,1.25,24.22-1.1,6.08-1.87,9.24-7.43,11.17-13.15,2.5-7.44,3.17-15.54,3.1-23.34a84.33,84.33,0,0,0-3-22.85,33.41,33.41,0,0,0-3.33-8,1.5,1.5,0,0,0-2.35-.3c-4.13,5.29-10.85,7.47-17.14,9-6.52,1.6-13.18,2.49-19.61,4.45-4.45,1.37-8.94,3-13.62,3.31s-9.38-.48-14-1.1c-6.86-.92-14.08-.65-20.67-3.07-6.24-2.29-10.28-7.41-13-13.27-3.52-7.47-5.28-15.74-6.91-23.78a54.37,54.37,0,0,1-1.34-9.22,79.12,79.12,0,0,0-.52-9c-.37-2.48-1.23-4.34-3.74-5.21a38.66,38.66,0,0,0-4.38-.9,15.53,15.53,0,0,1-5.2-2.69c-3.41-2.38-6.74-4.94-10.08-7.42a66.41,66.41,0,0,1-8.91-7.84,67.73,67.73,0,0,1-7.34-9.91c-2.56-4-5.06-8-7.4-12.16a82.75,82.75,0,0,1-6.15-12.54,73.79,73.79,0,0,1-2.94-11.34,156.17,156.17,0,0,0-3.45-16.18c-1.24-4.13-2.62-8.77-5.31-12.22-2.32-3-5.49-2.59-7.14.82-2.87,6-1.57,12.9-4.08,18.92-1.4,3.37-4.62,5-7.74,6.46s-6.35,3.12-8.62,6c-3.86,4.88-6.67,13.44-3.41,19.3,1.32,2.37,3.67,3.81,6,5,3.25,1.56,6.6,2.8,10,4.06,3.57,1.33,7,3,9.46,6s3.91,7.2,5.18,11a80.94,80.94,0,0,0,4.09,10.88,108.88,108.88,0,0,0,6.92,11.43c5,7.49,9.11,15.45,14,23a133.48,133.48,0,0,0,14.73,19,72.32,72.32,0,0,0,34.21,20.05c6,1.62,12,.48,16.36-4.06s6.25-11,6-17.09c-.62-14.54-12.31-25.57-19.61-37.18a48.77,48.77,0,0,1-4.83-9.53c-1.23-3.46-2.35-6.58-4.61-9.54s-4.74-5.46-6.37-8.7c-1.76-3.52-1.89-7.8-1.43-11.63a21.65,21.65,0,0,1,3-9.09,48.24,48.24,0,0,1,5.74-7c4.25-4.51,9.15-8.9,12-14.5a15.55,15.55,0,0,0,1.89-7.58c-.08-2.13-.6-5.34-3.14-5.85-2.33-.46-4.41,1.71-5.72,3.34a21.29,21.29,0,0,0-4.39,8.86c-.9,4.27-.31,8.59,0,12.89a38,38,0,0,1-1.37,13.07,48.59,48.59,0,0,1-4.72,11.66c-1.85,3.12-4.07,6.12-5.16,9.62-3.82,12.33,13.52,18.78,21.73,23.11a37.19,37.19,0,0,1,6.29,3.88,32,32,0,0,1,6.35,7.42,70.13,70.13,0,0,1,8.67,20,53.79,53.79,0,0,1,1.76,9.34c.41,4.68-.18,9.37,0,14.06a1.51,1.51,0,0,0,2.79.76,61.75,61.75,0,0,1,10.87-13.6c3.88-3.87,8.21-7.35,11.65-11.64,6.78-8.44,9.62-18.77,12.77-28.93,3.63-11.68,7.2-23.44,8.6-35.63a81.78,81.78,0,0,0-3.33-34.68,99.17,99.17,0,0,0-14.82-28.6,82.07,82.07,0,0,0-23-20.93c-8.63-5.32-17.9-9.64-28-11a78.22,78.22,0,0,0-11.94-.82c-3.19.06-7,.2-9.8,2-3.33,2.16-2.81,6.83-2.53,10.27a96.71,96.71,0,0,1-.38,16.84c-1.16,12.24-2.91,24.73-8.08,36a61.42,61.42,0,0,1-4.25,7.76l2.74.36a13,13,0,0,0-4.58-8.63c-2.8-2.17-6.35-3-9.78-3.52l.36,2.75c16.39-9.86,19.71-30.55,17.61-48.11a87.9,87.9,0,0,0-3.06-14.81l-1,1.84a11.58,11.58,0,0,1,4.63-.56l.4-2.94c-.78,0-1.56,0-2.35,0v3a14.15,14.15,0,0,1,2.79.59v-2.89c-5.78,1.53-9.45,6.91-14.49,9.78l2.2.89c-1.74-7.05,2.45-14.21.5-21.33-1.82-6.61-8.06-11.18-12.95-15.51-10.7-9.49-22.44-19.06-37.45-19.6-14.08-.5-27.79,7.76-37.62,17.21a83.18,83.18,0,0,0-13,16.23c-3.28,5.31-6.73,11.39-8,17.58-2.45,12.2,3.13,27,15.31,31.67,1.38.53,2.14-1.15,1.7-2.2-2.3-5.4-4.84-10.84-5.86-16.66-1.08-6.17.33-11.72,2.82-17.35,3.37-7.61,6.91-15.8,13.59-21.13a32,32,0,0,1,12.09-5.71c5.63-1.46,11.28-3.14,17-4.32s11.44-1.16,16.88,1.1a41.52,41.52,0,0,1,13.35,9.49c7.94,8,13.89,17.82,23.13,24.51l.36-2.74c-4,1.21-8.25,1.36-12.32,2.15-3.84.75-8.25,1.92-10.83,5.09-2,2.49-1.7,4.85-1,7.77.77,3.11,1.92,6.27,2.07,9.49,0,.71.11,2-.48,2.49-1,.77-3.2-.25-4-.74-2.11-1.24-3.54-3.54-5.29-5.22a12.16,12.16,0,0,0-7-3.52c-5.58-.74-11.82,2.59-16.6-1.61-2.2-1.94-3.2-5.36-6.68-5.05-2.68.25-5.36,2-7.53,3.46a62.57,62.57,0,0,0-7.51,6.08c-5,4.58-9.73,9.56-16,12.48a1.51,1.51,0,0,0-.69,1.7c3.13,8.68-2,20.77,8.29,25.87,3.88,1.92,8.61,2.32,12,5.17,2.87,2.42,5,6.09,8.46,7.68,3.82,1.73,8.2-.55,10.8-3.45s3.68-7.17,4.42-10.82,1.36-8-.32-11.59-5.29-5.63-8.83-7c-2-.81-4.13-1.41-6.23-2s-3.9-1.32-5.89-1.74a29.76,29.76,0,0,0-14.48.91c-4.42,1.34-8.84,3.62-11.72,7.34a15.33,15.33,0,0,0-2.64,12.44c.85,4.71,3.18,9,5.56,13.11a64.67,64.67,0,0,1,6.42,17,176.37,176.37,0,0,1,3.55,17.78c.89,6.42,1.2,12.9,2.08,19.31a56.7,56.7,0,0,0,3.32,13.9,66.3,66.3,0,0,0,5.12,9.95c3.61,5.77,9,13.24,16.39,14.08a9.65,9.65,0,0,0,4.58-.58c1.79-.67,1-3.57-.79-2.89-6.31,2.39-12-4.22-15.31-8.74a53.18,53.18,0,0,1-8.8-17.85c-2.77-11-2.47-22.42-4.64-33.49-2-10.42-4.11-21-9.5-30.29-4.11-7.09-8.71-16.88-1.43-23.61,6.25-5.77,16.54-7.22,24.42-4.66,6,1.93,16.34,3.33,16.84,11.31a30.12,30.12,0,0,1-1.79,11.07c-1.2,3.58-3.4,7.37-7.51,8.11-3.63.66-6.39-3.89-8.58-6.08-3.17-3.16-6.87-4.36-11-5.76a14.06,14.06,0,0,1-5.85-3.18,10.84,10.84,0,0,1-2.55-6.48c-.57-5.2.33-10.57-1.48-15.59l-.69,1.69c5.27-2.47,9.59-6.42,13.79-10.36S886,279,891.52,276.8c1.39-.56,2.26-.77,3.22.43a22,22,0,0,0,3.17,3.65,12,12,0,0,0,6.8,2.71c3,.2,5.88-.64,8.84-.72a10,10,0,0,1,8,3.31c1.64,1.66,3,3.62,5,4.93,2.29,1.52,6.61,2.66,8.49-.09,1.58-2.3.81-5.69.27-8.2-.63-2.88-1.78-5.76-2.07-8.71-.37-3.77,5.71-5.56,8.71-6.25,4.56-1.05,9.37-1.11,13.85-2.48a1.52,1.52,0,0,0,.36-2.74c-8.85-6.4-14.61-15.92-22.14-23.65a46.6,46.6,0,0,0-13.25-9.87,29.85,29.85,0,0,0-17.37-2.4c-6.2.91-12.15,3-18.24,4.44A37.74,37.74,0,0,0,872,236.65c-7.45,5.18-11.54,13.38-15.16,21.44-2.79,6.22-5,12.24-4.19,19.17s3.79,13.23,6.48,19.55l1.69-2.2c-10.11-3.87-14.76-16.28-13.48-26.4.72-5.75,3.74-11.28,6.59-16.23a80.86,80.86,0,0,1,11.85-15.8c8.76-9.09,20.94-17.33,33.87-18.3,14.08-1,26.64,7.35,36.58,16.44,2.63,2.41,5.39,4.71,8,7.17s5.31,5.22,6.45,8.67c2.36,7.14-2.13,14.63-.33,21.89a1.52,1.52,0,0,0,2.2.9c4.75-2.7,8.37-8.05,13.78-9.48,1.36-.36,1.49-2.62,0-2.89a17.14,17.14,0,0,0-3.59-.7,1.5,1.5,0,0,0,0,3c.79,0,1.57.05,2.35,0,1.62,0,2.12-2.69.4-2.95a15.07,15.07,0,0,0-6.22.56,1.52,1.52,0,0,0-1.05,1.85c4.67,15.59,6.08,35.14-2.93,49.5a30.88,30.88,0,0,1-10.24,10c-1,.6-1,2.53.36,2.74,2.89.44,6,1,8.42,2.74s3.42,4.46,3.84,7.31c.2,1.37,2.11,1.33,2.74.36,6.16-9.58,9.39-20.68,11.11-31.85.91-5.9,1.58-11.86,2-17.81a89.6,89.6,0,0,0,.29-9c-.07-2-.36-4-.43-6,0-1.53-.28-3.89,1-5a7.68,7.68,0,0,1,3.7-1.35,44.39,44.39,0,0,1,11.46-.16,64.35,64.35,0,0,1,25.38,7.52c9.41,5,17.94,11.09,24.89,19.19a95.13,95.13,0,0,1,16.13,27,79.49,79.49,0,0,1,5.62,32.31c-.48,11.95-3.54,23.59-7,35-3.07,10.17-5.56,21.16-11.24,30.26a56.51,56.51,0,0,1-9.85,11.2,108.69,108.69,0,0,0-11.57,12.13,48.16,48.16,0,0,0-4.37,6.49l2.8.76c-.22-4.57.34-9.14,0-13.71a57.38,57.38,0,0,0-1.64-9.47,76.33,76.33,0,0,0-7.71-19.24c-2.92-5.07-6.57-9.75-11.61-12.84-4.88-3-10.21-5.17-15.11-8.13-4.08-2.47-10.08-6.54-9.25-12.11.52-3.49,2.88-6.59,4.68-9.52a50,50,0,0,0,4.57-10.08,45.48,45.48,0,0,0,2.56-11.92c.27-4.44-.61-8.84-.56-13.28a18.6,18.6,0,0,1,3.33-10.56,11.8,11.8,0,0,1,2.59-2.91c.78-.58,1-.82,1.42,0,1.1,2.44.21,5.77-.88,8a32.57,32.57,0,0,1-5,7.11c-4,4.54-8.58,8.58-12.09,13.52a26.68,26.68,0,0,0-4.3,18.34,20.41,20.41,0,0,0,3.7,9.64c1.89,2.7,4.27,5,6,7.83,1.91,3,2.63,6.56,4.07,9.8a62.13,62.13,0,0,0,5.25,9.26c3.92,5.88,8.43,11.36,12.1,17.4,3.5,5.76,6.23,12.23,5.69,19.1-.46,5.76-3.26,11.91-8.57,14.69-5.95,3.11-13.22-.09-18.95-2.32a62.4,62.4,0,0,1-16.5-9.46c-12-9.71-21.05-23.24-28.46-36.65-4.13-7.49-9.46-14.26-13.48-21.81-3.63-6.84-4.59-14.85-8.73-21.44a19.63,19.63,0,0,0-7.57-7c-3.07-1.6-6.41-2.56-9.61-3.84-2.69-1.09-5.93-2.23-8.12-4.21-2.35-2.13-2.5-5.5-2.05-8.45a18.89,18.89,0,0,1,4.73-10.1c2.49-2.55,6-3.72,9.12-5.36,2.82-1.49,5.29-3.43,6.63-6.39s1.7-6.36,2.06-9.6a31.65,31.65,0,0,1,1.92-9.13,7,7,0,0,1,1-1.63c.22-.26.19-.2.56.07a10.34,10.34,0,0,1,2.55,3.88,49.27,49.27,0,0,1,2.45,6.35,101.2,101.2,0,0,1,3.28,14c1.37,7.78,3.12,15.23,6.73,22.31a192.82,192.82,0,0,0,13.8,23c4.34,6.19,9.93,11.09,16,15.49,3.3,2.37,6.46,5.08,9.93,7.2a15,15,0,0,0,4.34,1.95c1.49.34,3.24.3,4.63,1,1.91,1,1.58,4.77,1.66,6.56.12,2.69,0,5.41.35,8.09a103.69,103.69,0,0,0,2,10.28c.86,4,1.81,7.92,3,11.81,2,6.53,4.76,13.35,9.7,18.26,4,3.95,9.17,6,14.63,6.91,3.37.57,6.76.71,10.16,1,4.47.4,8.89,1.24,13.36,1.6a38.24,38.24,0,0,0,12.7-1c4.1-1.05,8.07-2.55,12.18-3.55,6.17-1.49,12.48-2.31,18.58-4.12,5.57-1.66,11.27-4.14,14.94-8.84l-2.36-.31c3.32,5.48,4.53,12.35,5.27,18.62a90.63,90.63,0,0,1-.19,24.18c-.93,6.11-2.52,13.34-7.12,17.84-2.2,2.16-5.4,2.8-8.36,3.21a74.84,74.84,0,0,1-12.25.42c-8.64-.25-17.25-1.08-25.88-1.39q-19.47-.67-39-.38c-12.94.2-25.87.71-38.81.74-5.95,0-11.9.89-17.85,1.09a69.07,69.07,0,0,1-10.47-.25c-1.86-.22-5.16-.5-6.39-2.2-1.45-2,.59-6.06,1.4-7.94a83.63,83.63,0,0,1,5.33-10,61.13,61.13,0,0,0,4.21-7.43c1.56-3.71,2.65-7.59,4.21-11.29,1.26-3,3-7,6.37-8.08,4.24-1.41,9.4.29,13.59,1.12a47.49,47.49,0,0,0,27.36-2.87c5.11-2.17,9.61-5.32,15-6.72a46.89,46.89,0,0,1,16.74-.85c11.39,1.25,22.35,5,33.24,8.39a44.77,44.77,0,0,0,16.8,2.2,88.49,88.49,0,0,0,17.2-3.26c3.53-1,7.13-1.83,10.62-2.95a9,9,0,0,0,3.49-1.63,6.76,6.76,0,0,0,1.7-5.73c-.65-6-1.32-12-1.79-18.08s-.58-12.36-1.29-18.5a111.55,111.55,0,0,0-8.9-32c-4.31-9.83-8-20-13-29.47a72.35,72.35,0,0,0-8.6-12.82l-1.06,2.56c10.09.31,19.57,3.82,29.23,6.38,6.3,1.67,12.76,1.92,19.14,3.16,2.68.52,5.64,1.13,7.92,2.71,2.58,1.79,2.62,5.13,2.43,8a85.48,85.48,0,0,1-2.07,11.55,74.68,74.68,0,0,0-1.25,12.49,108.75,108.75,0,0,1-1.16,15.51c-.88,4.84-2.3,9.55-3,14.42a38.75,38.75,0,0,0,.41,14.52c1,4.51,2.73,8.84,4.15,13.24s2.62,9.09,2.49,13.82a61.47,61.47,0,0,1-1.94,12c-1.74,7.42-4.09,15.28-2.68,23a21.83,21.83,0,0,0,4.71,9.49,52.34,52.34,0,0,1,3.14,4.29c.72,1.13,1.72,2.64,1.58,4.05-.16,1.65-2.1,2.3-3.49,2.6-2.14.47-4.31-.13-6.34-.74-4.08-1.23-8-2.5-12-.37a1.53,1.53,0,0,0-.69,1.7c2.41,8.6,16.12,2.08,21,0,3.67-1.56,7.26-2.95,11-4.29,4-1.42,7.79-3.34,10.37-6.79s3.82-7.76,5.24-11.76c1.83-5.13,3.81-10.07,7.77-14,7-6.86,17.31-8.18,26.68-8.22,11.32,0,22.61,1.95,33.93,1.35,1.92-.11,1.93-3.11,0-3Z" transform="translate(-6.5 -193.06)"/><path class="cls-1" d="M902.09,425a29.61,29.61,0,0,0,12.26-9.9,40,40,0,0,0,7.39-15.46,23.2,23.2,0,0,0-1.81-16.06c-3.11-6.06-8.22-10.32-12.68-15.29-4.82-5.38-6.57-12.82-11.83-17.88a1.52,1.52,0,0,0-2.56,1.06c-.24,4.58-.28,9.3,1.16,13.71,1.6,4.86,4.84,8.61,8.15,12.4a74.47,74.47,0,0,0,12,11.58c4,2.88,8.06,5.88,8.36,11.21a19,19,0,0,1-1.84,8.5c-.77,1.76-1.91,3.31-2.84,5a5.44,5.44,0,0,0-1,4c.46,1.66,2.23,2.37,3.76,2.67,4.63.91,8.94-.82,13.13-2.59,3.84-1.62,8.39-3.73,12.56-2,2.6,1.1,4.82,3.16,6.89,5s4.29,4,6.59,5.8c5,3.88,10.54,6.91,15.81,10.33l.76-2.79A202.33,202.33,0,0,0,951.56,438c-3.9.77-7.79,1.85-11.79,1.73A38.53,38.53,0,0,1,929,437.53c-3.44-1.13-6.79-2.51-10.16-3.81s-7-2.39-10.53-3.6C902,428,896.05,425,889.62,423.48c-5.68-1.36-12.66-2-18.16.35-4.12,1.8-7.1,5.43-9.09,9.36-4.29,8.46-5.42,18.57-5.5,27.94,0,4.18.25,8.37.11,12.56-.12,3.45-.31,7.67-2.05,10.75a13.65,13.65,0,0,1-5,5,3.37,3.37,0,0,1-2.4.63c-.9-.3-1-1.61-1.18-2.4l-1.05,1.84a18.86,18.86,0,0,1,8.5-.74c1.67.3,4.8,1.53,5,3.36,0,.16,0,.07,0,.09a3.73,3.73,0,0,1-.79.52,10.3,10.3,0,0,1-2.52.67,41,41,0,0,1-6.07.5c-7.53.2-14.68-2.79-22.13-3.42-6.65-.56-13.06.71-19.39,2.66-6.64,2-13.17,4.58-20.23,4.43-6.26-.13-12.31-2-18.13-4.16-6.13-2.29-12.12-5-18.39-6.9A57.28,57.28,0,0,0,730,484.26c-4.23.31-8.46.82-12.71.86-3.7,0-7.88,0-11.3-1.64-5.24-2.46-7-8.86-9.14-13.74-.79-1.76-3.38-.23-2.6,1.52,2.18,4.87,3.9,10.52,8.44,13.77,2.54,1.81,5.62,2.44,8.66,2.8a62.52,62.52,0,0,0,12.31,0c4.06-.32,8.13-.78,12.21-.78a46.34,46.34,0,0,1,11.54,1.53c6.8,1.74,13.23,4.6,19.76,7.12,6.33,2.44,12.87,4.56,19.69,4.86,7.5.32,14.41-2.21,21.46-4.39s13.79-3.42,21.06-2.46c4.15.55,8.17,1.75,12.28,2.5a41.58,41.58,0,0,0,9.77.62c3.06-.16,12-.57,10.24-5.81-1-2.86-4.25-4.64-7-5.15a22.17,22.17,0,0,0-10.1.75,1.53,1.53,0,0,0-1,1.84c.36,2.24,1.58,4.44,4.06,4.64,2.09.17,4.06-1,5.65-2.25a16.78,16.78,0,0,0,4.37-4.86c1.62-2.87,2.06-6.56,2.32-9.79.51-6.36-.18-12.75.16-19.12a72.86,72.86,0,0,1,2.2-14.84c1.2-4.48,3-9.14,6.21-12.56,3.92-4.14,9.4-4.6,14.84-4.17,6.73.52,13,3.26,19.19,5.68,3.29,1.29,6.64,2.34,10,3.44,3.6,1.18,7.1,2.64,10.64,4a63.68,63.68,0,0,0,12.06,3.63,33,33,0,0,0,12.36-.38c9.56-1.95,19.17-3.81,28.92-4.5a1.52,1.52,0,0,0,.76-2.8c-4.62-3-9.4-5.74-13.9-8.92-4.23-3-7.69-6.9-11.82-10-3.71-2.79-7.63-3.9-12.2-2.8-4.34,1.05-8.21,3.46-12.53,4.57-2,.5-4.48.83-6.4,0-.44-.19-.51-.23-.53-.4a4,4,0,0,1,.67-1.59c.88-1.57,1.94-3,2.7-4.67a25.34,25.34,0,0,0,2.3-7.79,14.56,14.56,0,0,0-5.36-13c-1.7-1.46-3.57-2.72-5.36-4.06a48.86,48.86,0,0,1-5.88-5.35c-2.31-2.4-4.47-4.93-6.65-7.44a28.78,28.78,0,0,1-4.51-6.65c-2.17-4.67-2.11-9.92-1.85-14.95l-2.56,1.06c4.28,4.11,6.15,9.93,9.42,14.77,3.52,5.19,8.76,9,12.38,14.12,3.2,4.56,4.89,9.52,4.17,15.1a35.16,35.16,0,0,1-5.7,14.52c-3,4.56-7.11,9-12.27,11.07-1.78.71-1,3.61.79,2.89Z" transform="translate(-6.5 -193.06)"/><path class="cls-1" d="M625.79,349.23c7.51-8.28,15.26-19.09,14.66-30.83-.22-4.27-1.65-9.55-5.37-12.11s-8.75.42-10,4.44-.69,8.76-.17,12.92c.8,6.38,2.1,12.67,3.42,19a199.27,199.27,0,0,1,3.55,20.29c.53,5.07,1,10.21,1.29,15.3.3,4.51.81,9.74-1.27,13.92a20.19,20.19,0,0,1-1.59,2.32s-.36.22-.17.09.28.18.09,0c.12.12-.13-.14-.21-.24-1-1.37-1.27-3.55-1.38-5.21a22.31,22.31,0,0,1,1.58-8.8,70.83,70.83,0,0,1,4.1-9.57,32.87,32.87,0,0,1,5.29-7.93,13.61,13.61,0,0,1,1.28-1.15,9.64,9.64,0,0,1,1.22-.7,1.73,1.73,0,0,1,1.14-.16c-.34,0,.26.08.36.11a2.73,2.73,0,0,1,.49.28,8.33,8.33,0,0,1,2.15,3.18,15.28,15.28,0,0,1,1.15,6.65c-.15,5.11-1.2,10.74,2.78,14.76,6.45,6.51,16.39-1.93,19.73-7.86a48.55,48.55,0,0,0,4.36-10.39c.83-2.92,1.86-7.22-.36-9.8s-6.13-2-8.39.2c-2.55,2.47-3.88,6.27-4.56,9.68s-.78,6.76,1.37,9.71c2.56,3.51,6.75,4.43,10.84,3.52,9.07-2,14.64-10.27,18.36-18.15,4.54-9.59,7.27-20,9.12-30.47,1.24-7,2.11-14.86-1.2-21.49-1.34-2.68-3.93-4.46-6.9-3.11-3.26,1.48-5.6,5.08-6.74,8.37a34.68,34.68,0,0,0-1.48,11.51,100,100,0,0,0,1.25,13.82c1.28,8.46,3.3,16.77,5.2,25.1.78,3.39,1.29,6.83,2,10.22.66,3.15,1.46,7.11,3.93,9.4,2.84,2.64,6.36.84,8.78-1.41,3.47-3.22,5.38-7.92,6.62-12.4a37.61,37.61,0,0,0,1.51-14,1.5,1.5,0,0,0-3,0c-.72,13.74,5.58,26.52,6.53,40.07.24,3.5.36,7,.33,10.52s-.09,7.48-1.12,11a6.43,6.43,0,0,1-.62,1.57,2.07,2.07,0,0,1-.19.32c-.15.23.12-.16-.08.11a1.67,1.67,0,0,1-.23.23s.2-.12-.06,0-.15,0-.16.06.08.06-.14,0l-.13-.06-.09,0a3.24,3.24,0,0,1-.36-.2,3,3,0,0,1-.7-.58c-1.15-1.24-1.44-3.37-1.58-5a44.48,44.48,0,0,1,.14-7.74c.39-4.4,1.24-8.74,1.75-13.13A171.06,171.06,0,0,1,716.62,378c1.27-5.68,3-11.7,6.61-16.39,2.61-3.39,7-6.53,10.91-3.1,3.5,3.1,5,8.44,4.91,13a14.81,14.81,0,0,1-2.06,7.43c-1.44,2.46-3.58,4.9-6.48,5.52-1.69.37-4.09.51-5.63-.44-1.32-.8-.53-2.67.42-3.54a2.86,2.86,0,0,1,1.53-.67,6,6,0,0,1,2.33.24,18.92,18.92,0,0,1,5.57,2.75,32.5,32.5,0,0,1,5,4.2,13.24,13.24,0,0,1,2.84,3.73l0,.16c.08.29.16.58.22.87a12.87,12.87,0,0,1,.3,2,20.77,20.77,0,0,1-.16,4.17,39.8,39.8,0,0,1-2.55,9.14,105.43,105.43,0,0,1-8.38,16.13c-3.45,5.68-8.31,10.09-13.67,14-5.15,3.71-10.57,7.06-15.32,11.3-4.15,3.71-8.23,8.12-8.93,13.86a67.61,67.61,0,0,0-.15,8.18,1.5,1.5,0,0,0,3,0c0-2.89-.3-5.93.25-8.78a15.57,15.57,0,0,1,4-7.12c4.67-5.32,10.59-9.18,16.36-13.18s11.31-8.35,15.43-14.14a88.66,88.66,0,0,0,5-8.31,96.49,96.49,0,0,0,4.61-9.35c2.47-5.86,4.76-12.9,3-19.27a12.08,12.08,0,0,0-2.89-4.6A34.75,34.75,0,0,0,737.4,381c-3.19-2.37-8.1-5.41-12.25-3.89a6.29,6.29,0,0,0-3.87,4.76c-.51,2.58,1.05,4.5,3.43,5.29a12.79,12.79,0,0,0,7.1,0c3.23-.9,5.75-3.54,7.48-6.3A20,20,0,0,0,740.87,364c-1.5-4.55-4.75-9.65-10-10-5.9-.44-10.4,5.58-12.75,10.23-5.47,10.85-6,23.51-7.73,35.09-.84,5.45-1.76,11.07-1.34,16.6a13.38,13.38,0,0,0,1.79,6.55,5.55,5.55,0,0,0,4.19,2.63c3.34,0,4.35-4.25,4.79-6.82a69,69,0,0,0,.69-12.93c-.06-3.05-.17-6.11-.48-9.14-.87-8.59-3.68-16.81-5.31-25.26a52.5,52.5,0,0,1-1.05-12.75h-3a35.45,35.45,0,0,1-1.5,13.57c-1.18,4.13-2.95,8.44-6.34,11.25-2.32,1.93-3.81,1.76-5.14-.78-1.58-3-2.07-6.72-2.67-10-2.75-15.37-8-30.53-7.64-46.31a26.71,26.71,0,0,1,1.75-10.1,13.36,13.36,0,0,1,2.87-4.07,6.82,6.82,0,0,1,1.76-1.35,3.42,3.42,0,0,1,.64-.23,2.55,2.55,0,0,0,.42,0c.81.07,1.39.86,1.9,1.79a15.14,15.14,0,0,1,1.36,3.95,30.91,30.91,0,0,1,.65,9.45,99.77,99.77,0,0,1-2.22,12.6,132.66,132.66,0,0,1-4.06,14.63,73,73,0,0,1-6.15,13.71c-2,3.44-4.47,6.78-7.84,9-2.87,1.92-6.76,3.65-10.28,2.7a6.39,6.39,0,0,1-3.87-3.17,5.91,5.91,0,0,1-.76-3.6,20.23,20.23,0,0,1,2.64-9.17c1.12-1.91,3.45-4.22,5.38-2.46.63.58.7,1.9.65,3a21.19,21.19,0,0,1-1.08,5.09,44.49,44.49,0,0,1-4.06,9.24c-.25.42-.51.84-.79,1.23.31-.43-.24.29-.25.3l-.37.44c-.39.45-.8.88-1.22,1.31a20.17,20.17,0,0,1-5.13,3.91,6.87,6.87,0,0,1-5,.83,6.33,6.33,0,0,1-3.85-4.61c-1.13-4.71.8-9.67-.48-14.4-.74-2.76-2.17-6.33-4.94-7.64-5.25-2.47-9.79,4.84-11.92,8.48a61.88,61.88,0,0,0-7,17.19,18,18,0,0,0,.84,10.87c.59,1.33,1.64,2.7,3.22,2.76,1.9.06,3.21-1.72,4-3.2,2.21-4,2.35-8.46,2.21-12.9-.16-4.61-.76-9.18-1.08-13.77-.87-12.75-4.17-25-6.37-37.58a76.14,76.14,0,0,1-1.49-14,13.34,13.34,0,0,1,.87-5.39c.69-1.44,2.66-2.85,4.3-2.35s2.75,2.46,3.43,3.95a16.78,16.78,0,0,1,1.43,6.28c.24,5.62-1.77,11.08-4.49,15.92a69.43,69.43,0,0,1-9.3,12.59c-1.29,1.43.82,3.55,2.12,2.12Z" transform="translate(-6.5 -193.06)"/><path class="cls-1" d="M139.71,365.86c-14.7,12.83-30.59,26.19-49.66,31.77A57.12,57.12,0,0,1,75.79,400a47.3,47.3,0,0,1-14.49-2.29c-4.82-1.38-9.64-2.92-14.65-3.32a29.13,29.13,0,0,0-13.28,2.37c-3.95,1.61-7.6,3.82-11.48,5.57A31.52,31.52,0,0,1,8,405C6,405,6,408,8,408a33.65,33.65,0,0,0,13.1-2.14c3.55-1.38,6.85-3.29,10.27-5,3.83-1.87,8-3.48,12.36-3.63,5.13-.18,10.14,1.34,15,2.76s9.66,2.83,14.69,2.93A56.82,56.82,0,0,0,88,401.29c9.72-2.36,18.79-7,27.13-12.38,9.51-6.18,18.21-13.49,26.74-20.93,1.46-1.27-.67-3.39-2.12-2.12Z" transform="translate(-6.5 -193.06)"/><path class="cls-1" d="M1222.21,456c10.12-.66,19.6,3,28.42,7.64,9.07,4.74,17.69,10.38,27.19,14.28,9.16,3.76,18.92,5.33,28.65,3,9.17-2.21,17.35-7.19,25.44-11.84,9.41-5.4,19.2-10.57,30.21-11.45,1.91-.15,1.93-3.15,0-3-9.92.79-19,4.75-27.59,9.52-8.15,4.52-16.06,9.79-25,12.75a40.06,40.06,0,0,1-13.68,2.2,45.79,45.79,0,0,1-14.44-3c-9.68-3.49-18.38-9.18-27.39-14-9.82-5.3-20.46-9.81-31.85-9.07-1.91.13-1.93,3.13,0,3Z" transform="translate(-6.5 -193.06)"/></g><g id="Layer_3" data-name="Layer 3"><path class="cls-1" d="M140.76,369.3c14.32-10.24,32.19-19.45,50.34-17.58A38.61,38.61,0,0,1,215.25,364c4.29,4.59,7.54,10.12,10.68,15.52,3.42,5.86,6.64,11.85,10.38,17.51,3.11,4.72,6.65,9.55,11.45,12.68a14.62,14.62,0,0,0,13.92,1.4c7.42-3.09,12-10,16.92-16a74.32,74.32,0,0,1,19.43-17c8.06-4.83,17-8,25-12.82,8.57-5.08,15.55-12.19,22.6-19.12a125.17,125.17,0,0,1,21.05-16.93c11.67-7.37,25-14.17,39-15.4,5.89-.52,12,.05,17.35,2.78,5.84,3,10,8.16,12.71,14,4.29,9.22,5.38,19.77,5.77,29.81.45,12-.35,23.92-.39,35.88,0,7.56.9,15.11,1.39,22.66.53,8.16,1.06,16.68-.53,24.75a20.16,20.16,0,0,1-3.3,8.35l1.69-.69c-16.35-3.59-32.82,1.21-49.29.24l1.5,1.5c-.44-7.23,2.06-14.16,4.18-21,2.18-7,4.11-14.21,3.22-21.6-.11-1-1.24-2.07-2.25-1.3-13.3,10.18-25,22.29-38.06,32.73-12.89,10.27-27.9,19.48-44.82,20.14-18.32.71-36.69-8.38-46.38-24.1a43.63,43.63,0,0,1-5.3-12.5c-1.39-5.65-1.34-11.47-1.35-17.25s-.21-11.39-1.82-16.93c-1.47-5-3.63-9.85-4.69-15a23.63,23.63,0,0,1,1.76-15.09c2.05-4.38,4.94-8.29,7.4-12.45a51.68,51.68,0,0,0,5.85-15.33c1.18-5.33,2.08-10.69,4-15.84,7.13-19.48,22.63-34.87,36.86-49.38a48.6,48.6,0,0,1,11.85-9.1A71.11,71.11,0,0,1,336.33,254c9.15-2.75,18.62-4.46,27.58-7.83s17.07-8.23,25.66-12.26c8.75-4.11,18-6.77,27.72-6,7.49.57,14,3.81,17.88,10.46a27.92,27.92,0,0,1,2.64,20c-1.95,8.46-7.88,14.78-14.33,20.27A85,85,0,0,1,398,293.1c-4.24,1.58-8.55,2.9-12.91,4.1l1.9,1.44c-.28-5.75-.49-12-2.8-17.35a17.13,17.13,0,0,0-7.92-8.22c-5-2.74-10.61-4.51-15.92-6.66-6.86-2.77-13.48-6.13-20.61-8.2-7.58-2.2-16.36-3.12-23.1,1.83a1.52,1.52,0,0,0-.54,2,10,10,0,0,0,6.05,4.33,13.9,13.9,0,0,0,7.21-.86c2.64-.93,5.14-2.2,7.75-3.19a59.12,59.12,0,0,1,9.31-2.73c5.7-1.12,11.31-.41,16.91.9a58.19,58.19,0,0,0,9.15,1.76,39.46,39.46,0,0,0,8.54-.51c11.1-1.73,22.72-8,34.1-4.79,4.91,1.37,10.34,4.67,13,9.14,2,3.37,2,7.24.88,10.92-2.52,8.47-8.65,15.45-12.79,23.13-3.42,6.34-6.26,15.69-2.23,22.43,3.37,5.64,10.71,6.13,16.6,5.67,7.25-.57,14.28-2.51,21.42-3.78,7.68-1.36,15.58-1.26,23.23-2.8,5.36-1.08,9.95-3.77,11-9.53,1.75-9.93-3.28-19.86-4-29.66-.84-11.76,3-22.47,8.36-32.75,4.28-8.25,9.18-16.16,12.74-24.77,2.4-5.81,5.38-13.61,3-19.87-3.14-8.17-13.73-6.3-20.36-4.8-5.45,1.24-10.72,2.95-16.37,1.94-6.32-1.13-12.39-3.74-18.65-5.25a89.63,89.63,0,0,0-17.64-2.44c-7.52-.29-15-.36-22.54-.81s-15-1.07-22.45-.45c-6.77.56-13.33,2.34-19.87,4.1s-13.29,3.55-20.17,3.74c-7.13.2-14.11-1.36-21-3-6.74-1.6-13.57-3.39-20.52-3.76-6.16-.33-12.24,1.29-18.29,2.17s-12,1-17.15-2.6a1.51,1.51,0,0,0-2.2.9c-2.7,9.39,0,18.48,1.81,27.74a44.25,44.25,0,0,1,.86,14,69.85,69.85,0,0,1-3.51,14.09c-3.12,9.14-7.23,17.93-10,27.21-1.94,6.6-4.08,13.14-5.37,19.91-1.11,5.84-2.22,13.05.83,18.51s10.42,7,15.93,5c6.37-2.26,11.18-7.66,15.61-12.53a83,83,0,0,1,6.37-6.62,74.12,74.12,0,0,0,7.85-7.8c5-5.85,9.46-12.57,16.21-16.53s14.46-3.85,21.9-3a117.23,117.23,0,0,1,24.2,5.8c5.87,2,12.41,4.08,16.15,9.39,3.29,4.68,4.2,10.59,4.56,16.18.44,6.56.16,13.14.41,19.71s1,13.46,3.51,19.67A33,33,0,0,0,400,361.29c15.22,9.45,34.64,9.13,49.14,20,8.7,6.55,18.82,20.64,8.39,30.25a26.66,26.66,0,0,1-10,5.32l1.84,1C445,404.51,432.48,397.71,420,393.14c-13.51-4.95-28.24-7.68-40.64-15.28A37.89,37.89,0,0,1,367.13,366a90.19,90.19,0,0,1-7.81-15.48c-4.92-12.28-8.4-25.72-8.26-39,.11-10.81,3.32-23.09,14.38-27.44a25.69,25.69,0,0,1,4.29-1.25c1.89-.39,1.09-3.29-.8-2.89a24,24,0,0,0-14.21,8.5c-3.56,4.55-5.36,10.18-6.13,15.84-1.84,13.36,1,27.34,5.24,40a116.51,116.51,0,0,0,7.5,17.77,49.27,49.27,0,0,0,9.45,13.16c10.6,9.89,25.71,13.5,39.15,17.76,12.59,4,27.7,8.71,34.5,21.09a27.85,27.85,0,0,1,2,4.73,1.51,1.51,0,0,0,1.84,1c6.4-2.06,13-5.66,15.56-12.22,2.16-5.46.75-11.5-2-16.46-3.46-6.22-9-11.3-15.08-15-7.61-4.58-16.28-6.88-24.75-9.32s-17.57-5.19-24.58-11a30.51,30.51,0,0,1-10-17.1c-3-12.89-.36-26.26-2.68-39.22-1-5.54-3.23-11-7.61-14.73a28.69,28.69,0,0,0-7.86-4.45c-3.55-1.47-7.19-2.74-10.86-3.87a107.53,107.53,0,0,0-24.79-4.91c-7.41-.46-14.74.5-21,4.76-6.45,4.38-10.83,10.92-15.85,16.72a93,93,0,0,1-7.73,7.52c-2.4,2.21-4.53,4.71-6.73,7.11-4.22,4.61-9.28,10.41-15.8,11.45a10.91,10.91,0,0,1-8.92-2.59c-1.9-1.85-2.5-4.69-2.67-7.24-.47-7.16,1.56-14.45,3.5-21.27,2.18-7.62,4.54-15.14,7.43-22.53,3.54-9,7.46-18.16,8.77-27.86,1.3-9.53-1.81-18.35-3.27-27.64a33,33,0,0,1,.62-14.32l-2.2.89c10.41,7.24,23.13,1.13,34.5.82,6.83-.19,13.7,1.65,20.3,3.23s13.12,3.16,19.86,3.5c13.58.69,26.12-5.05,39.29-7.22,7.1-1.17,14.36-.8,21.51-.43,7.37.38,14.74,1,22.13,1a101.74,101.74,0,0,1,19.16,1.62A176.69,176.69,0,0,1,464.15,204a30.6,30.6,0,0,0,16.24.74c5.2-1.16,10.46-3,15.85-2.75,16.24.65,3,25.47-.75,32.43-5.19,9.72-11.18,19.2-14.3,29.85a51.53,51.53,0,0,0-2.1,16.05c.19,6.28,1.79,12.2,3.11,18.3,1.11,5.1,3.35,14-1.71,17.89-1.95,1.49-4.53,2-6.89,2.46-3.62.65-7.31.9-11,1.25-4,.38-7.95.76-11.87,1.48-3.47.63-6.91,1.42-10.37,2.1-6.14,1.22-13.74,3-19.81.58-6.74-2.65-6.09-11.48-4.24-17.17C419,299.05,425,292.28,429,284.75c3.69-7,5.82-15.24.4-22a27.28,27.28,0,0,0-13-8.5c-5.28-1.6-10.85-1.2-16.19-.13-5.68,1.14-11.19,3-16.86,4.2a44.4,44.4,0,0,1-8.52,1,34.78,34.78,0,0,1-8.89-1.28c-5.37-1.32-10.89-2.43-16.45-1.9A56,56,0,0,0,332.64,261c-4.67,2-10.3,4.63-14-.42l-.54,2.05c5.75-4.22,13-3.61,19.56-1.87,6.8,1.82,13.15,4.87,19.61,7.61,5.16,2.2,10.52,3.95,15.58,6.35,3.24,1.54,6.27,3.43,8,6.67,2.75,5.08,2.79,11.64,3.07,17.25a1.52,1.52,0,0,0,1.9,1.45,118.68,118.68,0,0,0,27.19-10.66c8.7-4.92,17.34-11.63,23.08-19.91,8-11.49,7.53-29.84-3.75-39.13-6.9-5.69-16.38-6.36-24.95-5.24-9.63,1.26-18.38,5.51-26.93,9.91-4.41,2.28-8.82,4.59-13.38,6.57a104,104,0,0,1-14.59,5c-9.56,2.58-19.37,4.52-28.39,8.75a48.79,48.79,0,0,0-12.29,8.13C308,267,304.38,271,300.76,274.8c-7.47,7.87-14.7,16.08-20.65,25.18a87.19,87.19,0,0,0-7.42,13.79A85,85,0,0,0,268.06,330c-1.22,5.94-2.79,11.62-5.85,16.9-2.52,4.33-5.55,8.37-7.68,12.92a26.31,26.31,0,0,0-2.48,14.89c.7,5.38,2.83,10.38,4.49,15.51,1.9,5.86,2.32,11.66,2.33,17.8,0,5.9,0,11.84,1.28,17.63,4.28,18.81,20.48,33.19,38.82,37.83a56.33,56.33,0,0,0,26.14.37,76,76,0,0,0,23.57-10.21c15.1-9.49,27.73-22.28,41.13-33.91,3.09-2.68,6.23-5.32,9.48-7.8l-2.26-1.3c1.78,14.82-8.3,27.85-7.4,42.56a1.54,1.54,0,0,0,1.5,1.5c16.17.95,32.46-3.86,48.5-.35a1.57,1.57,0,0,0,1.69-.69c4.22-5.65,4.56-13.84,4.68-20.6.15-8.62-.67-17.22-1.33-25.81-1.62-21.44,2.13-43.15-2-64.43C440,329,432.77,315.2,418.09,311.67c-13.2-3.17-27.32,1.68-39.14,7.37a143.36,143.36,0,0,0-19.22,11.27c-8.2,5.66-15,12.78-22.16,19.66a101,101,0,0,1-11.52,9.85,90.34,90.34,0,0,1-14,7.71c-7.9,3.76-15.84,7.6-22.82,13a72.79,72.79,0,0,0-9.62,8.87c-3.39,3.73-6.21,7.92-9.6,11.64-3.79,4.18-9.08,8.95-15.19,8.32-5-.52-9-4.58-12-8.29-4.18-5.14-7.46-11-10.74-16.74a183,183,0,0,0-10.64-17.34,44.7,44.7,0,0,0-18.79-15.34c-17.27-7.17-36.71-.86-52.15,7.87a127.11,127.11,0,0,0-11.29,7.23c-1.55,1.12-.06,3.72,1.52,2.6Z" transform="translate(-6.5 -193.06)"/><path class="cls-1" d="M272,317.91c-5.7,11.61-13.76,21.83-19.61,33.34a66.2,66.2,0,0,0-6.24,17.67,85.31,85.31,0,0,0-1.08,17.19,189.77,189.77,0,0,0,3.46,35,69.74,69.74,0,0,0,4.54,14.95,51.44,51.44,0,0,0,9.45,13.63A43,43,0,0,0,288,463.15c9.76,1.36,19.7-.53,28.86-4,19.76-7.43,37.38-21.4,51-37.32,9.22-10.74,15.39-23.25,22.48-35.39,3.46-5.92,7.52-11.43,11.18-17.22,3.44-5.43,6.66-11.38,7.49-17.84a20.65,20.65,0,0,0-.81-9.07,1.52,1.52,0,0,0-1.84-1.05c-16.55,5.81-19.18,27-19.43,42.08a195,195,0,0,0,7.43,53.05c1.58,5.31,3.83,10.42,5.17,15.8,1.59,6.41.94,12.77.23,19.25-.42,3.74-.51,7.27,1.95,10.36,3.38,4.25,8.67,7.08,13,10.19a57.32,57.32,0,0,1,11.8,10.89c3.66,4.58,6.46,9.68,9.75,14.5,2.91,4.26,6.38,8.75,11.28,10.79,1.66.68,5.34,1.85,6.88.49,1.11-1,1.82-3.05,2.4-4.39a28.91,28.91,0,0,0,1.6-4.87c3.11-13.56-3.12-27.4-8.95-39.32-1.5-3.08-3.12-6.07-4.86-9a51.07,51.07,0,0,1-4.54-8.86,19.61,19.61,0,0,1-.94-10.56c.69-3.29,2.13-6.36,3.15-9.55a17.81,17.81,0,0,0,.82-8.8c-.26-1.37-2.08-1.33-2.74-.36-4.3,6.32-10.36,11.62-13.31,18.78a28,28,0,0,0,1.15,23.09c3.55,7,9.23,12.63,12.79,19.64a49.56,49.56,0,0,1,5.14,27.21c-.43,4.92-1.83,9.7-2.24,14.62a20,20,0,0,0,3.71,14L449,548c-5.59-.35-10.84-3.94-15.17-7.23a107.79,107.79,0,0,1-15.13-14.39,145.74,145.74,0,0,1-10.8-14.19c-4-5.78-9.24-9.58-14.68-13.84a54.26,54.26,0,0,1-9.05-8.61c-2.29-2.86-4.38-6.56-3.63-10.36,1.56-7.9,10.65-9.53,17.16-11.06a51.8,51.8,0,0,0,9.53-2.87,55.45,55.45,0,0,0,8.35-5.12c5.86-4,12-8.45,16.5-14.05A29,29,0,0,0,438.47,426c-.48-7.22-2.87-14.11-4.42-21.13a38.76,38.76,0,0,1,.88-23c1-3.81,2.17-7.6,2.89-11.48.77-4.13.85-8.26,1.23-12.42.41-4.39,1.41-9.1,5.65-11.29a21.92,21.92,0,0,1,7-1.88,79.88,79.88,0,0,1,11.77-.77c19.23.17,37.73,6.93,56.38,10.85,15.53,3.26,33.17,6.19,48.38.05,4.17-1.68,8.13-3.31,12.65-3.83a55.49,55.49,0,0,1,11.38,0c7.74.7,15.44,2.13,23.23,1.13a41.41,41.41,0,0,0,11.73-3.38c1.75-.8.23-3.38-1.52-2.6-8,3.62-16.46,3.71-25.06,2.77-7.9-.86-15.8-2-23.69-.33-4.31.91-8.11,3-12.27,4.32a51,51,0,0,1-12.55,2.24c-8.57.5-17.17-.57-25.58-2.12-18.72-3.46-36.93-10.07-56-11.77-7.69-.68-16-.7-23.57,1.26-4.31,1.12-7.75,3.51-9.44,7.73a28,28,0,0,0-1.62,8.06,98.55,98.55,0,0,1-1.44,12.93c-1.7,7.91-5,15.63-4.84,23.84.35,14.31,10.1,29.36,3.66,43.42-3.31,7.23-9.93,12.37-16.19,16.95-2.88,2.12-5.84,4.14-8.91,6a33.16,33.16,0,0,1-9.37,3.48c-6.78,1.66-14.29,2.66-18.83,8.53-5.08,6.57-2,14,2.93,19.59s11.39,9.31,16.83,14.35c4.78,4.42,7.86,10.28,11.87,15.35A129.13,129.13,0,0,0,425.81,538c4.74,4.33,9.94,8.54,15.86,11.13A21.49,21.49,0,0,0,449,551a1.51,1.51,0,0,0,1.3-2.26A17.65,17.65,0,0,1,447,536c.38-4.2,1.49-8.3,2-12.48a51.3,51.3,0,0,0-3.11-25.67,60,60,0,0,0-6-11.24c-2-3-4.31-5.8-6.33-8.79-4.54-6.69-6.74-14.4-4.55-22.42,2.25-8.23,9.33-14.08,14-20.93l-2.75-.36c1.14,6.15-3.25,12-4.18,17.89-1,6.24,1.21,12.19,4.23,17.55,6.34,11.26,13,22.9,15.35,35.79,1.34,7.45.55,15-3.54,21.51l1.3-.75c-8.14.64-13.31-8.19-17-14.13-4.32-6.88-8.85-13.67-15.2-18.87-3-2.48-6.28-4.66-9.48-6.91-2.86-2-6.61-4.14-8.37-7.32-1.24-2.25-.81-5-.54-7.42.51-4.64,1.11-9.29.69-14-.72-8-4.3-15.3-6.51-22.94-1.54-5.32-2.74-10.73-3.75-16.17-2.56-13.75-4-28-2.94-41.94.92-11.85,4.12-27.79,16.9-32.28l-1.84-1c4.06,12.41-6.43,24.62-12.84,34.22-8.1,12.13-13.78,25.76-22.66,37.38-12.2,16-28.61,29.81-46.74,38.52-17,8.15-37.88,11.38-53.63-1.21a49,49,0,0,1-16.54-25.45c-3-10.94-4.11-22.42-4.63-33.72s-.43-22.7,3.73-33.5c4.38-11.38,12-21.16,18.08-31.61q2.4-4.09,4.51-8.36c.85-1.72-1.74-3.25-2.59-1.51Z" transform="translate(-6.5 -193.06)"/></g></svg>