<?xml version="1.0" encoding="utf-8"?>
<!-- Generator: Adobe Illustrator 23.1.1, SVG Export Plug-In . SVG Version: 6.00 Build 0)  -->
<svg version="1.1" id="Layer_1" xmlns="http://www.w3.org/2000/svg" xmlns:xlink="http://www.w3.org/1999/xlink" x="0px" y="0px"
	 viewBox="0 0 1400 700" style="enable-background:new 0 0 1400 700;" xml:space="preserve">
<style type="text/css">
	.st0{fill:#F9D835;}
</style>
<path class="st0" d="M255.02,95.79c35.21,0,68.27,6.7,99.24,20.05c30.94,13.37,58,31.47,81.15,54.26
	c23.12,22.84,41.38,49.87,54.76,81.15c13.35,31.3,20.05,64.53,20.05,99.74s-6.7,68.3-20.05,99.24
	c-13.37,30.97-31.63,57.86-54.76,80.67c-23.15,22.84-50.2,40.91-81.15,54.26c-30.97,13.35-64.05,20.05-99.24,20.05
	s-68.13-6.7-98.76-20.05c-30.66-13.35-57.55-31.44-80.67-54.26c-23.15-22.81-41.41-49.7-54.76-80.67
	C7.46,419.27,0.79,386.16,0.79,350.98c0-35.21,6.67-68.44,20.05-99.74c13.35-31.3,31.61-58.33,54.76-81.15
	c23.12-22.81,50.01-40.91,80.67-54.26C186.89,102.49,219.81,95.79,255.02,95.79z M255.02,179.87c-23.46,0-45.63,4.41-66.49,13.21
	s-39.12,21.03-54.76,36.66s-27.87,33.9-36.66,54.76s-13.21,43.03-13.21,66.48s4.41,45.63,13.21,66.49s21.03,38.95,36.66,54.26
	c15.64,15.33,33.9,27.56,54.76,36.66c20.86,9.13,43.03,13.68,66.49,13.68s45.63-4.55,66.49-13.68
	c20.86-9.13,39.12-21.34,54.76-36.66c15.64-15.3,27.87-33.4,36.66-54.26c8.8-20.86,13.21-43.03,13.21-66.49
	c0-23.46-4.41-45.63-13.21-66.49c-8.8-20.86-21.03-39.12-36.66-54.76c-15.64-15.64-33.9-27.87-54.76-36.66
	C300.62,184.28,278.48,179.87,255.02,179.87z"/>
<path class="st0" d="M683.28,595.44H599.2V350.98c0-35.21,7.18-68.44,21.5-99.74s33.87-58.33,58.67-81.15
	c24.77-22.81,53.61-40.91,86.53-54.26c32.92-13.35,68.27-20.05,106.08-20.05v84.08c-26.08,0-50.51,4.41-73.33,13.21
	c-22.84,8.8-42.86,21.03-60.14,36.66c-17.28,15.64-30.8,33.9-40.57,54.76c-9.77,20.86-14.66,43.03-14.66,66.48L683.28,595.44
	L683.28,595.44z"/>
<path class="st0" d="M1143.81,94.81c35.21,0,68.44,6.7,99.74,20.05c31.28,13.37,58.5,31.63,81.65,54.76
	c23.12,23.15,41.38,50.2,54.76,81.15C1393.3,281.73,1400,314.81,1400,350v244.44h-85.08v-54.76
	c-22.84,20.21-48.73,36.02-77.74,47.41c-29.01,11.39-60.12,17.12-93.37,17.12c-35.21,0-68.13-6.7-98.76-20.05
	c-30.66-13.35-57.55-31.44-80.67-54.26c-23.15-22.81-41.41-49.7-54.76-80.67c-13.37-30.94-20.05-64.05-20.05-99.24
	c0-35.21,6.67-68.27,20.05-99.24c13.35-30.94,31.61-58,54.76-81.15c23.12-23.12,50.01-41.38,80.67-54.76
	C1075.68,101.51,1108.6,94.81,1143.81,94.81z M1143.81,178.89c-23.46,0-45.63,4.41-66.49,13.21s-38.95,21.03-54.26,36.66
	c-15.33,15.64-27.56,33.9-36.66,54.76c-9.13,20.86-13.68,43.03-13.68,66.49c0,23.46,4.55,45.63,13.68,66.49
	c9.13,20.86,21.34,38.95,36.66,54.26c15.3,15.33,33.4,27.56,54.26,36.66c20.86,9.13,43.03,13.68,66.49,13.68
	c24.1,0,46.6-4.55,67.46-13.68s38.95-21.34,54.26-36.66c15.3-15.3,27.37-33.4,36.19-54.26c8.8-20.86,13.21-43.03,13.21-66.49
	c0-23.46-4.41-45.63-13.21-66.49c-8.8-20.86-20.86-39.12-36.19-54.76s-33.42-27.87-54.26-36.66
	C1190.41,183.3,1167.91,178.89,1143.81,178.89z"/>
<polyline class="st0" points="42.91,490.86 0,595.15 97.74,550.46 "/>
</svg>
